<svg width="51" height="51" viewBox="0 0 51 51" fill="none" xmlns="http://www.w3.org/2000/svg">
<path fill-rule="evenodd" clip-rule="evenodd" d="M44.6249 25.4999C44.6249 26.134 44.373 26.742 43.9247 27.1904C43.4763 27.6387 42.8683 27.8906 42.2342 27.8906H14.5349L24.7986 38.1543C25.0335 38.3732 25.2219 38.6371 25.3525 38.9303C25.4832 39.2236 25.5534 39.5402 25.5591 39.8611C25.5648 40.1821 25.5057 40.501 25.3855 40.7987C25.2653 41.0963 25.0863 41.3667 24.8593 41.5937C24.6323 41.8208 24.3619 41.9997 24.0642 42.12C23.7665 42.2402 23.4477 42.2992 23.1267 42.2936C22.8057 42.2879 22.4891 42.2177 22.1959 42.087C21.9026 41.9563 21.6387 41.7679 21.4199 41.5331L7.0761 27.1893C6.62841 26.7411 6.37695 26.1335 6.37695 25.4999C6.37695 24.8664 6.62841 24.2588 7.0761 23.8106L21.4199 9.46681C21.873 9.04453 22.4724 8.81464 23.0918 8.82557C23.7111 8.8365 24.302 9.08739 24.74 9.52539C25.178 9.9634 25.4289 10.5543 25.4398 11.1736C25.4508 11.793 25.2209 12.3924 24.7986 12.8456L14.5349 23.1093H42.2342C42.8683 23.1093 43.4763 23.3612 43.9247 23.8095C44.373 24.2578 44.6249 24.8659 44.6249 25.4999Z" fill="#86422A"/>
</svg>
