<svg width="106" height="106" viewBox="0 0 106 106" fill="none" xmlns="http://www.w3.org/2000/svg">
<path fill-rule="evenodd" clip-rule="evenodd" d="M62.9375 19.7866V33.2884C62.9375 33.7786 62.9375 34.4809 63.0258 35.0815C63.106 35.6996 63.3243 36.2918 63.6645 36.814C64.0048 37.3362 64.4582 37.7751 64.9913 38.0981C65.5126 38.3922 66.0903 38.5726 66.6863 38.6274C67.2824 38.6822 67.8833 38.6102 68.4495 38.4161C69.0237 38.2395 69.6508 37.9391 70.119 37.7139L75.0833 35.3554L80.0477 37.7139C80.5158 37.9347 81.143 38.2395 81.7172 38.4205C82.2837 38.614 82.8848 38.6853 83.4808 38.6297C84.0769 38.5741 84.6544 38.393 85.1754 38.0981C85.7076 37.7746 86.1602 37.3355 86.4997 36.8133C86.8391 36.2911 87.0568 35.6992 87.1364 35.0815C87.2292 34.4809 87.2292 33.7786 87.2292 33.2884V13.3869C87.7297 13.3633 88.2185 13.3442 88.6955 13.3295C93.4302 13.1616 97.1667 17.0483 97.1667 21.7874V71.2982C97.1667 76.2095 93.1652 80.1757 88.2671 80.4849C83.9829 80.7499 78.9567 81.2755 75.0833 82.2957C70.3045 83.5589 66.2942 87.0127 60.1859 88.638C57.4211 89.3756 54.3382 89.7731 53 90.0646V22.8518C54.4133 22.5029 59.1038 21.9552 60.3935 21.2132C61.2091 20.7362 62.0571 20.2607 62.9375 19.7866ZM87.132 56.6128C87.2378 57.035 87.2593 57.474 87.1954 57.9046C87.1314 58.3352 86.9832 58.7489 86.7593 59.1222C86.5353 59.4955 86.24 59.8209 85.8902 60.08C85.5403 60.339 85.1429 60.5266 84.7205 60.632L67.0538 65.0486C66.2011 65.2618 65.2985 65.1275 64.5448 64.6753C63.7911 64.223 63.2479 63.4899 63.0347 62.6371C62.8215 61.7844 62.9558 60.8818 63.408 60.1281C63.8603 59.3744 64.5934 58.8312 65.4462 58.618L83.1128 54.2013C83.5351 54.0955 83.9741 54.0739 84.4046 54.1379C84.8352 54.2019 85.249 54.35 85.6222 54.574C85.9955 54.798 86.321 55.0933 86.58 55.4431C86.8391 55.793 87.0267 56.1904 87.132 56.6128Z" fill="#86422A"/>
<path d="M80.6042 13.917C77.8658 14.2394 75.1717 14.712 72.875 15.401C71.7517 15.7432 70.6462 16.1412 69.5625 16.5935V30.6473L72.875 29.075L72.9103 29.0529C73.5798 28.6943 74.3241 28.4977 75.0833 28.4787C75.2924 28.4787 75.4956 28.4935 75.6928 28.5229C76.4658 28.651 77.0841 28.9646 77.2563 29.0529L77.2961 29.075L80.6042 30.6473V13.917Z" fill="#86422A"/>
<path opacity="0.5" d="M53.0002 23.0288C51.525 22.7461 48.3317 22.3177 45.4123 21.5315C39.4763 19.9415 35.5543 16.629 30.9168 15.4012C26.9992 14.3677 21.9024 13.8465 17.5873 13.5815C12.7467 13.2812 8.8335 17.2253 8.8335 22.0748V71.3029C8.8335 76.2054 12.835 80.1804 17.7331 80.4852C22.0172 80.7502 27.0434 81.2758 30.9168 82.296C33.0633 82.8658 36.2875 84.1996 39.1892 85.5025C43.628 87.4944 48.2522 89.0226 53.0002 90.0694V23.0288Z" fill="#C3A15E"/>
<path d="M18.8726 56.6126C18.9784 56.1906 19.1663 55.7936 19.4256 55.4443C19.6849 55.095 20.0104 54.8001 20.3836 54.5766C20.7568 54.3531 21.1704 54.2052 21.6008 54.1416C22.0311 54.0779 22.4698 54.0996 22.8918 54.2055L40.5584 58.6222C41.4106 58.8359 42.143 59.3795 42.5944 60.1332C43.0458 60.887 43.1793 61.7892 42.9655 62.6413C42.7517 63.4935 42.2082 64.2259 41.4544 64.6773C40.7007 65.1287 39.7985 65.2622 38.9463 65.0484L21.2797 60.6318C20.8577 60.5259 20.4607 60.338 20.1114 60.0788C19.762 59.8195 19.4672 59.494 19.2437 59.1207C19.0201 58.7475 18.8723 58.3339 18.8087 57.9036C18.745 57.4732 18.7667 57.0345 18.8726 56.6126ZM22.8873 36.5388C22.463 36.4261 22.0205 36.3988 21.5855 36.4586C21.1505 36.5184 20.7318 36.6641 20.3536 36.8872C19.9754 37.1102 19.6454 37.4063 19.3826 37.7581C19.1199 38.1099 18.9297 38.5104 18.8232 38.9363C18.7166 39.3623 18.6958 39.8051 18.7619 40.2392C18.8281 40.6733 18.9798 41.0898 19.2084 41.4647C19.437 41.8396 19.7378 42.1653 20.0934 42.4229C20.449 42.6804 20.8522 42.8648 21.2797 42.9651L38.9463 47.3818C39.7935 47.5806 40.6848 47.4381 41.4278 46.9851C42.1707 46.5321 42.7056 45.805 42.9168 44.9608C43.1279 44.1167 42.9985 43.2233 42.5564 42.4739C42.1142 41.7244 41.395 41.179 40.554 40.9555L22.8873 36.5388Z" fill="#86422A"/>
</svg>
