<svg width="38" height="38" viewBox="0 0 38 38" fill="none" xmlns="http://www.w3.org/2000/svg">
<path fill-rule="evenodd" clip-rule="evenodd" d="M11.1212 10.4466C10.7701 10.1657 10.5448 9.75696 10.495 9.3101C10.4451 8.86324 10.5746 8.41486 10.8552 8.06347C11.0417 7.84698 11.1928 7.6024 11.303 7.33876C11.3166 7.3001 11.3257 7.26004 11.3302 7.21933V7.18133C11.3193 7.10262 11.2623 6.97233 10.8416 6.42676L10.7819 6.35619C10.4508 5.93276 9.83733 5.14833 9.67719 4.11962C9.48447 2.89276 9.94862 1.72562 10.8552 0.596474C11.141 0.260932 11.5461 0.0497856 11.9849 0.00774097C12.4236 -0.0343036 12.8615 0.096055 13.2058 0.371215C13.5501 0.646376 13.7738 1.04473 13.8295 1.48194C13.8852 1.91915 13.7686 2.36089 13.5043 2.71362C13.3178 2.93011 13.1667 3.17469 13.0565 3.43833C13.0429 3.47699 13.0338 3.51705 13.0293 3.55776V3.59305C13.0402 3.67176 13.0972 3.80205 13.5179 4.34762L13.5776 4.41819C13.9088 4.84162 14.5222 5.62605 14.6823 6.65476C14.875 7.88162 14.4109 9.04876 13.5043 10.1779C13.2234 10.529 12.8147 10.7542 12.3678 10.8041C11.921 10.854 11.4726 10.7272 11.1212 10.4466ZM7.09047 16.247V24.3899C7.09047 26.4528 8.76247 28.122 10.8226 28.122H21.6798C23.7426 28.122 25.4119 26.45 25.4119 24.3899V16.247H7.09047ZM3.69761 15.9078C3.69761 14.2222 5.06561 12.8542 6.75119 12.8542H29.8226C31.7123 12.8542 33.5246 13.6049 34.8607 14.9411C36.1969 16.2772 36.9476 18.0895 36.9476 19.9792C36.9476 21.8689 36.1969 23.6811 34.8607 25.0173C33.5246 26.3535 31.7123 27.1042 29.8226 27.1042H28.27C27.7307 28.4086 26.8167 29.5238 25.6437 30.3088C24.4707 31.0939 23.0913 31.5136 21.6798 31.5149H10.8226C8.93295 31.5149 7.12068 30.7642 5.78448 29.428C4.44828 28.0918 3.69761 26.2796 3.69761 24.3899V15.9078ZM28.8048 23.7113H29.8226C30.8124 23.7113 31.7617 23.3181 32.4616 22.6182C33.1615 21.9183 33.5548 20.969 33.5548 19.9792C33.5548 18.9894 33.1615 18.0401 32.4616 17.3402C31.7617 16.6403 30.8124 16.247 29.8226 16.247H28.8048V23.7113ZM0.644043 35.9256C0.644043 35.3857 0.858519 34.8679 1.24029 34.4862C1.62206 34.1044 2.13985 33.8899 2.67976 33.8899H32.5369C33.0768 33.8899 33.5946 34.1044 33.9764 34.4862C34.3581 34.8679 34.5726 35.3857 34.5726 35.9256C34.5726 36.4655 34.3581 36.9833 33.9764 37.3651C33.5946 37.7469 33.0768 37.9613 32.5369 37.9613H2.67976C2.13985 37.9613 1.62206 37.7469 1.24029 37.3651C0.858519 36.9833 0.644043 36.4655 0.644043 35.9256ZM18.998 8.06347C18.7338 8.4162 18.6172 8.85794 18.6729 9.29515C18.7286 9.73236 18.9523 10.1307 19.2966 10.4059C19.6409 10.681 20.0788 10.8114 20.5175 10.7693C20.9563 10.7273 21.3614 10.5162 21.6472 10.1806C22.551 9.05147 23.0179 7.88433 22.8252 6.65747C22.6623 5.62876 22.0516 4.84433 21.7205 4.4209L21.6635 4.35033C21.24 3.80747 21.183 3.67176 21.1722 3.59576V3.56047C21.1704 3.546 21.1794 3.50619 21.1993 3.44105C21.3095 3.17741 21.4607 2.93282 21.6472 2.71633C21.9115 2.3636 22.0281 1.92187 21.9724 1.48466C21.9166 1.04745 21.6929 0.64909 21.3486 0.37393C21.0043 0.0987693 20.5664 -0.0315894 20.1277 0.0104553C19.689 0.0524999 19.2838 0.263647 18.998 0.599188C18.0942 1.72833 17.6273 2.89547 17.82 4.12233C17.9829 5.15105 18.5936 5.93547 18.9248 6.3589L18.9818 6.42947C19.4052 6.97233 19.4622 7.10805 19.473 7.18405V7.21933C19.4749 7.23381 19.4658 7.27362 19.4459 7.33876C19.3357 7.6024 19.1845 7.84698 18.998 8.06347Z" fill="#BC956B"/>
</svg>