<svg width="110" height="110" viewBox="0 0 110 110" fill="none" xmlns="http://www.w3.org/2000/svg">
<path d="M54.9998 9.16699C29.7915 9.16699 9.1665 29.792 9.1665 55.0003C9.1665 80.2087 29.7915 100.834 54.9998 100.834C80.2082 100.834 100.833 80.2087 100.833 55.0003C100.833 29.792 80.2082 9.16699 54.9998 9.16699ZM54.9998 91.667C34.7873 91.667 18.3332 75.2128 18.3332 55.0003C18.3332 34.7878 34.7873 18.3337 54.9998 18.3337C75.2123 18.3337 91.6665 34.7878 91.6665 55.0003C91.6665 75.2128 75.2123 91.667 54.9998 91.667ZM76.0373 34.742L45.8332 64.9462L33.9623 53.1212L27.4998 59.5837L45.8332 77.917L82.4998 41.2503L76.0373 34.742Z" fill="#12D23B"/>
</svg>
